<svg width="77" height="74" viewBox="0 0 77 74" fill="none" xmlns="http://www.w3.org/2000/svg">
<path d="M57.5142 26.8163C74.3693 22.0887 76.6827 5.46258 75.8565 0H51.0696C60.9843 3.47619 64.9502 19.5329 52.061 23.8367C40.1633 27.8095 33.223 30.7891 32.2315 38.7347L17.3594 35.2585L1 72.5034L26.7784 42.2109L30.7443 43.2041L1.49574 73L53.0525 43.2041C48.9214 42.2109 39.7667 40.4231 34.2145 39.2313C36.1974 30.7891 45.1207 30.2925 57.5142 26.8163Z" fill="white"/>
<path d="M75.8565 0C75.8565 5.46258 72.8821 22.5058 57.5142 26.8163C45.1207 30.2925 36.1974 30.7891 34.2145 39.2313C39.7667 40.4231 48.9214 42.2109 53.0525 43.2041L1.49574 73L30.7443 43.2041L26.7784 42.2109L1 72.5034L17.3594 35.2585L32.2315 38.7347C33.223 30.7891 40.1633 27.8095 52.0611 23.8367C64.9502 19.5329 60.4886 2.97959 50.5738 0.496599" stroke="#DEA94E"/>
</svg>
